<svg width="36" height="32" viewBox="0 0 36 32" fill="none" xmlns="http://www.w3.org/2000/svg">
<g clip-path="url(#clip0)">
<path d="M34.8736 16.8587C34.5396 16.5584 34.0844 16.3896 33.6094 16.3896C33.1344 16.3896 32.6789 16.5584 32.3449 16.8587L25.3486 23.0722C25.1244 23.2723 24.8195 23.3849 24.5017 23.3852H22.7602C23.7483 23.3852 24.5495 22.673 24.5495 21.7946C24.5495 20.916 23.7483 20.2041 22.7602 20.2041H10.2349L7.61646 22.5314L10.2349 26.5662H25.4977C26.1306 26.5664 26.7378 26.3433 27.1857 25.9459L34.8736 19.1065C35.2132 18.8104 35.4045 18.4055 35.4045 17.9827C35.4045 17.5598 35.2132 17.1549 34.8736 16.8587Z" fill="#FFDAAA"/>
<path d="M0.596436 22.3296L6.56084 31.5123L11.7261 28.8614L5.7617 19.6787L0.596436 22.3296Z" fill="#3D9AE2"/>
<path d="M12.0244 13.3115C10.7066 13.3115 9.63867 14.2608 9.63867 15.4322C9.63867 16.6033 10.7066 17.5529 12.0244 17.5529H25.1461V13.3115H12.0244Z" fill="#787680"/>
<path d="M25.146 13.3115V14.3719H12.0243C10.9363 14.3711 9.98627 15.0258 9.71601 15.9624C9.66271 15.7897 9.6365 15.6111 9.63854 15.4322C9.63854 14.2608 10.7065 13.3115 12.0243 13.3115H25.146Z" fill="#57565C"/>
<path d="M12.0244 0.587891H25.1461V13.312H12.0244V0.587891Z" fill="#C49A6C"/>
<path d="M25.1461 3.43457V13.3118H14.0222C18.4317 10.7091 22.2134 7.35156 25.1461 3.43457Z" fill="#A97C50"/>
<path d="M9.63867 2.70857V15.4326C9.63867 14.2612 10.7066 13.312 12.0244 13.312V0.587891C10.7066 0.587891 9.63867 1.53717 9.63867 2.70857Z" fill="#8B5E3C"/>
<path d="M15.0066 3.76855H22.1639V6.94957H15.0066V3.76855Z" fill="#BCBEC0"/>
<path d="M35.2971 16.4848C34.8509 16.0846 34.2437 15.8594 33.61 15.8594C32.9763 15.8594 32.3688 16.0846 31.9229 16.4848L24.9267 22.6952L24.913 22.7068C25.2654 22.0498 25.2144 21.2781 24.7773 20.6625C24.3404 20.0466 23.5788 19.6733 22.7599 19.6733H10.2347C10.0762 19.6733 9.92479 19.7293 9.81296 19.8287L7.7426 21.6687L6.27771 19.4134C6.11317 19.16 5.74825 19.073 5.46314 19.2195L0.297873 21.8704C0.0124672 22.0166 -0.0850951 22.341 0.0794502 22.5945L6.04385 31.7772C6.20869 32.0306 6.57331 32.1176 6.85872 31.9711L12.024 29.3202C12.3091 29.1739 12.407 28.8496 12.2421 28.5961L11.2677 27.0957H25.4975C26.2882 27.0939 27.0462 26.8154 27.6072 26.3199L35.2945 19.4807C35.7456 19.0854 35.9995 18.5457 35.9995 17.9826C35.9995 17.4193 35.7456 16.8796 35.2945 16.4843L35.2971 16.4848ZM6.77892 30.7878L1.41096 22.5235L5.54294 20.4028L10.9109 28.6671L6.77892 30.7878ZM34.4499 18.731L26.762 25.5704C26.4256 25.8671 25.9713 26.0341 25.4975 26.0354H10.5792L10.3337 25.6572L8.36118 22.6183L10.4813 20.7337H22.7599C23.4187 20.7337 23.9528 21.2085 23.9528 21.794C23.9528 22.3796 23.4187 22.8544 22.7599 22.8544H16.1991V23.9147H24.5015C24.9776 23.9157 25.4346 23.7472 25.7701 23.4464L32.768 17.2345C33.2372 16.8296 33.9834 16.8296 34.4525 17.2345C34.6797 17.4312 34.8081 17.7013 34.8081 17.9834C34.8081 18.2653 34.6797 18.5356 34.4525 18.7321L34.4499 18.731Z" fill="black"/>
<path d="M12.0244 18.0834H25.1461C25.4755 18.0834 25.7426 17.846 25.7426 17.5532V0.587786C25.7426 0.295002 25.4755 0.0576172 25.1461 0.0576172H12.0244C10.3781 0.0591704 9.04399 1.24506 9.04224 2.70846V15.4325C9.04136 16.1356 9.35531 16.8105 9.91477 17.3075C10.4742 17.8048 11.2332 18.0839 12.0244 18.0834ZM12.0244 17.023C11.036 17.023 10.2351 16.3109 10.2351 15.4325C10.2351 14.5539 11.036 13.842 12.0244 13.842H24.5497V14.9024H12.0244V15.9627H24.5497V17.023H12.0244ZM24.5497 12.7817H12.6209V1.11796H24.5497V12.7817ZM10.2351 2.70846C10.238 2.03669 10.7156 1.43922 11.428 1.21555V12.8345C11.3855 12.8425 11.3467 12.8586 11.3051 12.8681C11.1837 12.8943 11.064 12.9272 10.9472 12.9665C10.8875 12.9872 10.8316 13.0095 10.7742 13.0333C10.6656 13.0786 10.5598 13.1296 10.4582 13.186C10.4081 13.2137 10.3571 13.2391 10.3097 13.2704C10.2852 13.2852 10.2581 13.2963 10.2351 13.3124V2.70846Z" fill="black"/>
<path d="M15.0066 7.47963H22.1639C22.4933 7.47963 22.7603 7.24225 22.7603 6.94947V3.76845C22.7603 3.47567 22.4933 3.23828 22.1639 3.23828H15.0066C14.6772 3.23828 14.4102 3.47567 14.4102 3.76845V6.94947C14.4102 7.24225 14.6772 7.47963 15.0066 7.47963ZM15.603 4.29862H21.5674V6.4193H15.603V4.29862Z" fill="black"/>
</g>
<defs>
<clipPath id="clip0">
<rect width="36" height="32" fill="white"/>
</clipPath>
</defs>
</svg>
